HIERARCHY
ROOT root
{
	OFFSET 0.0000 0.0000 0.0000
	CHANNELS 6 Xposition Yposition Zposition Zrotation Xrotation Yrotation
	JOINT rfemur
	{
		OFFSET -7.7032 -9.8555 2.1513
		CHANNELS 3 Zrotation Xrotation Yrotation
		JOINT rtibia
		{
			OFFSET -7.1353 -40.4666 0.0000
			CHANNELS 3 Zrotation Xrotation Yrotation
			JOINT rfoot
			{
				OFFSET -6.6645 -37.7961 0.0000
				CHANNELS 3 Zrotation Xrotation Yrotation
				JOINT rtoes
				{
					OFFSET -3.4134 -6.6508 11.8768
					CHANNELS 3 Zrotation Xrotation Yrotation
					End Site
					{
						OFFSET 0.0000 0.0000 0.0000
					}
				}
			}
		}
	}
	JOINT lfemur
	{
		OFFSET 8.5590 -9.8555 2.1513
		CHANNELS 3 Zrotation Xrotation Yrotation
		JOINT ltibia
		{
			OFFSET 7.2751 -41.2593 0.0000
			CHANNELS 3 Zrotation Xrotation Yrotation
			JOINT lfoot
			{
				OFFSET 6.5686 -37.2525 -0.0000
				CHANNELS 3 Zrotation Xrotation Yrotation
				JOINT ltoes
				{
					OFFSET 3.2326 -4.1860 10.4122
					CHANNELS 3 Zrotation Xrotation Yrotation
					End Site
					{
						OFFSET -0.0000 -0.0000 0.0000
					}
				}
			}
		}
	}
	JOINT lowerback
	{
		OFFSET 0.0000 0.0000 0.0000
		CHANNELS 3 Zrotation Xrotation Yrotation
		JOINT upperback
		{
			OFFSET -0.2975 11.0962 -0.4289
			CHANNELS 3 Zrotation Xrotation Yrotation
			JOINT thorax
			{
				OFFSET -0.0009 11.0405 -0.3169
				CHANNELS 3 Zrotation Xrotation Yrotation
				JOINT neck
				{
					OFFSET 0.1944 11.1642 0.0841
					CHANNELS 3 Zrotation Xrotation Yrotation
					JOINT head
					{
						OFFSET 1.6277 15.5530 -0.6089
						CHANNELS 3 Zrotation Xrotation Yrotation
						End Site
						{
							OFFSET -0.0000 0.0000 0.0000
						}
					}
				}
			}
			JOINT lshoulderjoint
			{
				OFFSET -0.0009 11.0405 -0.3169
				CHANNELS 3 Zrotation Xrotation Yrotation
				JOINT lhumerus
				{
					OFFSET 14.1669 18.7170 0.1105
					CHANNELS 3 Zrotation Xrotation Yrotation
					JOINT lradius
					{
						OFFSET 29.5186 0.0000 0.0000
						CHANNELS 3 Zrotation Xrotation Yrotation
						JOINT lhand
						{
							OFFSET 23.9354 0.0000 0.0000
							CHANNELS 3 Zrotation Xrotation Yrotation
							End Site
							{
								OFFSET 0.0000 -0.0000 0.0000
							}
						}
					}
				}
			}
			JOINT rshoulderjoint
			{
				OFFSET -0.0009 11.0405 -0.3169
				CHANNELS 3 Zrotation Xrotation Yrotation
				JOINT rhumerus
				{
					OFFSET -14.2042 18.2168 -0.2511
					CHANNELS 3 Zrotation Xrotation Yrotation
					JOINT rradius
					{
						OFFSET -29.7619 0.0000 0.0000
						CHANNELS 3 Zrotation Xrotation Yrotation
						JOINT rhand
						{
							OFFSET -25.1658 0.0000 0.0000
							CHANNELS 3 Zrotation Xrotation Yrotation
							End Site
							{
								OFFSET 0.0000 0.0000 0.0000
							}
						}
					}
				}
			}
		}
	}
}
MOTION
Frames: 14
Frame Time: 0.008333
0.0000 177.9024 728.1000 0.0000 0.0000 0.0000 1.7000 2.2936 0.0000 0.0000 0.0000 0.0000 0.0000 0.0000 0.0000 0.0000 0.0000 0.0000 -1.0000 -25.3567 0.0000 0.0000 -0.0000 0.0000 0.0000 0.0000 0.0000 0.0000 0.0000 0.0000 -3.1300 -13.1605 -3.1000 -0.6900 -1.5100 -3.5000 0.8500 14.9700 -1.8500 -7.1700 0.0000 -9.5100 10.4600 0.0000 -10.1100 -89.8400 2.6300 -166.7200 -9.2200 0.3800 -145.7700 -0.0000 -0.0000 -66.4800 6.7400 -45.1100 23.6800 85.7700 -3.6600 166.5600 12.5300 18.1500 182.0400 -0.0000 -0.0000 63.4800 -33.0400 -35.1200 -0.7800 
0.0000 177.8430 729.3802 0.0000 0.0000 0.0000 1.7000 3.0279 0.0000 0.0000 0.0000 0.0000 0.0000 0.0000 0.0000 0.0000 0.0000 0.0000 -1.0000 -23.8902 0.0000 0.0000 -0.0000 0.0000 0.0000 0.0000 0.0000 0.0000 0.0000 0.0000 -2.8146 -13.4907 -2.9853 -0.5944 -1.5100 -3.4140 0.6684 14.9700 -1.7831 -7.2751 0.0000 -9.5196 10.8328 0.0000 -10.1865 -89.7731 2.5344 -166.7104 -9.2009 -0.0310 -145.8656 -0.0000 -0.0000 -66.3749 6.6540 -45.1578 23.5175 85.8656 -3.5549 166.5696 12.1954 18.3603 181.6863 -0.0000 -0.0000 62.8874 -32.1510 -35.1582 -1.9271 
0.0000 177.8823 730.5235 0.0000 0.0000 0.0000 1.7000 3.5020 0.0000 0.0000 0.0094 0.0000 0.0000 0.0000 0.0000 0.0000 0.0000 0.0000 -1.0000 -22.6602 0.0000 0.0000 0.0000 0.0000 0.0000 0.0000 0.0000 0.0000 0.0000 0.0000 -2.5174 -13.7463 -2.8979 -0.4715 -1.5100 -3.3644 0.5415 14.9700 -1.7435 -7.4624 0.0000 -9.5109 11.2603 0.0000 -10.2903 -89.7974 2.4024 -166.8832 -9.2274 -0.2141 -145.9976 -0.0000 -0.0000 -66.2971 7.1059 -45.1235 23.1818 85.8426 -3.4132 166.7797 11.6147 18.3882 181.1868 -0.0000 -0.0000 62.2674 -31.3350 -35.3241 -2.7550 
0.0000 178.1814 731.2481 0.0000 0.0000 0.0000 1.7000 3.2660 0.0000 0.0000 0.1713 0.0000 0.0000 0.0000 0.0000 0.0000 0.0000 0.0000 -1.0000 -22.2110 0.0000 0.0000 0.0000 0.0000 0.0000 0.0000 0.0000 0.0000 0.0000 0.0000 -2.3512 -13.7782 -2.7772 -0.2691 -1.5100 -3.2472 0.6254 14.9700 -1.6879 -7.5841 0.0000 -9.5881 11.1612 0.0000 -10.3607 -89.8347 2.3640 -166.7785 -9.2387 -0.1866 -146.4785 -0.0000 -0.0000 -66.2466 7.3496 -44.9465 23.4276 85.8834 -3.3566 166.6525 11.0568 18.1644 180.7149 -0.0000 -0.0000 61.6981 -31.2600 -35.7304 -3.3159 
0.0000 178.4654 731.9511 0.0000 0.0000 0.0000 1.7000 2.9547 0.0000 0.0000 0.5299 0.0000 0.0000 0.0000 0.0000 0.0000 0.0000 0.0000 -1.0000 -21.7766 0.0000 0.0000 0.0000 0.0000 0.0000 0.0000 0.0000 0.0000 0.0000 0.0000 -2.4124 -13.7967 -2.6529 0.0153 -1.5100 -3.1065 0.9859 14.9700 -1.6471 -7.9047 0.0000 -9.7071 11.0906 0.0000 -10.4606 -89.9224 2.2776 -166.4141 -9.2318 -0.0647 -147.1676 -0.0000 -0.0000 -66.1741 6.4247 -44.3518 24.2276 85.8406 -3.2924 166.2676 10.5847 17.9982 180.4524 -0.0000 -0.0000 61.0353 -31.0376 -36.0371 -3.6700 
0.0000 178.7347 732.6324 0.0000 0.0000 0.0000 1.7000 2.5685 0.0000 0.0000 1.0826 0.0000 0.0000 0.0000 0.0000 0.0000 0.0000 0.0000 -1.0000 -21.3569 0.0000 0.0000 0.0000 0.0000 0.0000 0.0000 0.0000 0.0000 0.0000 0.0000 -2.4612 -13.8017 -2.6300 0.1635 -1.5100 -3.0878 1.2003 14.9700 -1.6556 -8.1103 0.0000 -10.1041 11.2281 0.0000 -10.8541 -90.0413 2.1119 -166.3244 -9.2612 0.2484 -147.6897 -0.0000 -0.0000 -66.1210 5.5185 -44.0274 24.6550 85.6897 -3.1397 166.2290 9.9232 17.8531 180.0904 -0.0000 -0.0000 60.2787 -30.5925 -36.0900 -3.7768 
0.0000 178.9898 733.2918 0.0000 0.0000 0.0000 1.7000 2.1068 0.0000 0.0000 1.8281 0.0000 0.0000 0.0000 0.0000 0.0000 0.0000 0.0000 -1.0000 -20.9518 0.0000 0.0000 0.0000 0.0000 0.0000 0.0000 0.0000 0.0000 0.0000 0.0000 -1.8450 -13.7933 -2.4021 0.5724 -1.5100 -2.9429 1.0709 14.9700 -1.5424 -8.2088 0.0000 -10.4159 10.9612 0.0000 -11.1732 -89.9376 1.9376 -166.4597 -9.2626 0.5065 -148.1971 -0.0000 -0.0000 -66.0879 5.3274 -44.5215 24.4359 85.8044 -2.9529 166.3871 9.3115 17.7171 179.7868 -0.0000 -0.0000 59.5412 -30.4947 -36.2812 -3.9885 
0.0000 179.2317 733.9299 0.0000 0.0000 0.0000 1.7000 1.5728 0.0000 0.0000 2.7552 0.0000 0.0000 0.0000 0.0000 0.0000 0.0000 0.0000 -1.0000 -20.5608 0.0000 0.0000 0.0000 0.0000 0.0000 0.0000 0.0000 0.0000 0.0000 0.0000 -1.3159 -13.7718 -2.1610 0.8828 -1.5100 -2.7449 0.9478 14.9700 -1.4171 -8.1954 0.0000 -10.7457 10.5113 0.0000 -11.4988 -89.7518 1.8278 -166.5515 -9.1771 0.9363 -148.8376 -0.0000 -0.0000 -66.0869 4.9706 -44.9274 24.9382 85.8807 -2.8654 166.4607 8.7422 17.4934 179.4266 -0.0000 -0.0000 58.8631 -30.3549 -36.5850 -4.7166 
0.0000 179.4608 734.5469 0.0000 0.0000 0.0000 1.7000 0.9677 0.0000 0.0000 3.8570 0.0000 0.0000 0.0000 0.0000 0.0000 0.0000 0.0000 -1.0000 -20.1837 0.0000 0.0000 0.0000 0.0000 0.0000 0.0000 0.0000 0.0000 0.0000 0.0000 -1.1476 -13.7376 -2.0771 1.0376 -1.5100 -2.6865 0.9718 14.9700 -1.3865 -8.2124 0.0000 -10.9312 10.1788 0.0000 -11.6682 -89.6188 1.6318 -166.5829 -9.0559 1.6694 -149.5582 -0.0000 -0.0000 -66.1094 4.6418 -44.6706 25.3006 85.7347 -2.7400 166.5347 8.1976 17.4100 178.8729 -0.0000 -0.0000 58.2359 -29.7982 -36.6318 -5.6312 
0.0000 179.6776 735.1427 0.0000 0.0000 0.0000 1.7000 0.2917 0.0000 0.0000 5.1271 0.0000 0.0000 0.0000 0.0000 0.0000 0.0000 0.0000 -1.0000 -19.8204 0.0000 0.0000 0.0000 0.0000 0.0000 0.0000 0.0000 0.0000 0.0000 0.0000 -0.9913 -13.6907 -2.0097 1.1041 -1.5100 -2.6297 0.9035 14.9700 -1.3478 -8.1456 0.0000 -10.9881 9.9775 0.0000 -11.6940 -89.5921 1.3229 -166.4694 -8.9859 2.3538 -150.3244 -0.0000 -0.0000 -66.1682 4.3751 -44.4679 25.2535 85.5957 -2.4810 166.5157 7.7950 17.4884 178.2903 -0.0000 -0.0000 57.7025 -28.8909 -36.5337 -6.4765 
0.0000 179.8831 735.7181 0.0000 0.0000 0.0000 1.7000 -0.4511 0.0000 0.0000 6.5507 0.0000 0.0000 0.0000 0.0000 0.0000 0.0000 0.0000 -1.0000 -19.4704 0.0000 0.0000 0.0000 0.0000 0.0000 0.0000 0.0000 0.0000 0.0000 0.0000 -0.7938 -13.6318 -1.9253 1.1815 -1.5100 -2.5565 0.8176 14.9700 -1.2976 -8.0229 0.0000 -10.9888 9.8765 0.0000 -11.6565 -89.6168 1.1297 -166.3732 -9.0091 3.1085 -151.1641 -0.0000 -0.0000 -66.2503 4.0365 -44.2644 25.3800 85.5432 -2.2997 166.4800 7.4532 17.5400 177.7582 -0.0000 -0.0000 57.2485 -27.9335 -36.5794 -7.2235 
0.0000 180.0776 736.2734 0.0000 0.0000 0.0000 1.7000 -1.2589 0.0000 0.0000 8.1167 0.0000 0.0000 0.0000 0.0000 0.0000 0.0000 0.0000 -1.0000 -19.1333 0.0000 0.0000 0.0000 0.0000 0.0000 0.0000 0.0000 0.0000 0.0000 0.0000 -0.5916 -13.5612 -1.8540 1.3535 -1.5100 -2.5146 0.8000 14.9700 -1.2646 -8.0009 0.0000 -11.0006 9.8500 0.0000 -11.6557 -89.4910 1.0643 -166.2879 -9.0040 4.2718 -152.0693 -0.0000 -0.0000 -66.3260 3.9372 -43.9041 25.6999 85.6278 -2.2497 166.3976 7.1768 17.5709 177.1443 -0.0000 -0.0000 56.8338 -27.4843 -36.5522 -7.8022 
0.0000 180.2616 736.8088 0.0000 0.0000 0.0000 1.7000 -2.1300 0.0000 0.0000 9.8139 0.0000 0.0000 0.0000 0.0000 0.0000 0.0000 0.0000 -1.0000 -18.8089 0.0000 0.0000 0.0000 0.0000 0.0000 0.0000 0.0000 0.0000 0.0000 0.0000 -0.5035 -13.4792 -1.7918 1.5359 -1.5100 -2.4718 0.8988 14.9700 -1.2453 -8.0253 0.0000 -11.0718 9.8641 0.0000 -11.7365 -89.3835 0.9835 -166.1824 -9.0218 5.3006 -152.9588 -0.0000 -0.0000 -66.3929 4.0853 -43.7900 25.5353 85.6776 -2.1929 166.2871 6.9665 17.6376 176.4559 -0.0000 -0.0000 56.4276 -27.2294 -36.4035 -8.2000 
0.0000 180.4360 737.3254 0.0000 0.0000 0.0000 1.7000 -3.0598 0.0000 0.0000 11.6245 0.0000 0.0000 0.0000 0.0000 0.0000 0.0000 0.0000 -1.0000 -18.4965 0.0000 0.0000 0.0000 0.0000 0.0000 0.0000 0.0000 0.0000 0.0000 0.0000 -0.5172 -13.3866 -1.7344 1.6228 -1.5100 -2.4101 1.0271 14.9700 -1.2272 -7.9390 0.0000 -11.2324 9.8672 0.0000 -11.8938 -89.4185 0.8774 -166.1528 -9.1525 5.9443 -153.7541 -0.0000 -0.0000 -66.4769 4.1231 -43.7691 24.8374 85.5618 -2.1059 166.2756 6.7860 17.8847 175.7815 -0.0000 -0.0000 56.0124 -26.7909 -36.2547 -8.6529 
